# Blender v2.79 (sub 0) OBJ File: 'depthimagepoint.blend'
# www.blender.org
mtllib depthimagepoint.mtl
o Cube
v 0.100000 -0.100000 -0.139091
v -0.100000 -0.100000 -0.139091
v 0.100000 0.100000 -0.139091
v -0.100000 0.100000 -0.139091
v -0.087169 -0.087169 -0.139091
v -0.087169 0.087169 -0.139091
v 0.087169 0.087169 -0.139091
v 0.087169 -0.087169 -0.139091
v -0.000000 0.020000 -0.189091
v -0.000000 -0.020000 -0.189091
v -0.000000 0.000000 -0.209091
vn 0.0000 0.0000 1.0000
vn 1.0000 0.0000 0.0000
usemtl Material
s off
f 5//1 6//1 4//1 2//1
f 6//1 7//1 3//1 4//1
f 8//1 5//1 2//1 1//1
f 7//1 8//1 1//1 3//1
f 11//2 9//2 10//2
