# Blender v2.79 (sub 0) OBJ File: 'limes turm.blend'
# www.blender.org
mtllib limes_turm.mtl
o Limes_Turm
v 2.250000 0.000000 -2.250000
v -2.250000 0.000000 2.250000
v -2.250000 0.000000 -2.250000
v 2.250000 0.000000 2.250000
v -2.250000 6.100000 -2.250000
v 2.250000 6.100000 -2.250000
v 2.250000 6.100000 2.250000
v -2.250000 6.100000 2.250000
v -3.390000 6.360000 -3.390000
v -3.390000 6.100000 3.390000
v -3.390000 6.360000 3.390000
v -3.390000 6.100000 -3.390000
v 3.390000 6.360000 3.390000
v 3.390000 6.100000 3.390000
v 3.390000 6.100000 -3.390000
v -2.250000 9.340000 -2.250000
v -2.250000 6.360000 2.250000
v -2.250000 9.340000 2.250000
v -2.250000 6.360000 -2.250000
v 2.250000 6.360000 -2.250000
v 2.250000 9.340000 2.250000
v 2.250000 6.360000 2.250000
v 2.250000 9.340000 -2.250000
v -3.145115 7.350000 3.140000
v 3.140000 6.360000 3.140000
v -3.145115 6.360000 3.140000
v 3.140000 7.350000 3.140000
v 3.310000 7.350000 3.310000
v -3.312910 6.360000 3.310000
v 3.310000 6.360000 3.310000
v -3.312910 7.350000 3.310000
v 0.000000 10.384106 3.390000
v -3.523665 9.131248 -3.390000
v -3.523665 9.131248 3.390000
v 0.000000 10.384106 -3.390000
v 3.523665 9.131248 3.390000
v 3.523665 9.131248 -3.390000
v -3.446613 8.914537 3.390000
v -3.446613 8.914537 -3.390000
v 3.446613 8.914537 -3.390000
v 3.446613 8.914537 3.390000
v 0.000000 10.140000 2.250000
v 0.000000 10.140000 3.390000
v 0.000000 10.140000 -2.250000
v 0.000000 10.140000 -3.390000
v -3.312910 6.360000 -2.250000
v 3.140000 6.360000 -2.250000
v 3.310000 6.360000 -2.250000
v -3.145115 6.360000 -2.250000
v 3.390000 6.360000 -3.390000
v -3.145115 6.360000 -3.140000
v 3.140000 6.360000 -3.140000
v 3.310000 6.360000 -3.310000
v -3.312910 6.360000 -3.310000
v -3.312910 7.350000 -3.310000
v 3.140000 7.350000 -3.140000
v -3.145115 7.350000 -3.140000
v 3.310000 7.350000 -3.310000
vt 0.909353 0.271812
vt 0.727966 0.456496
vt 0.727966 0.271812
vt 0.909353 0.456496
vt 0.727966 0.522162
vt 0.546579 0.271812
vt 0.546579 0.522162
vt 0.273290 0.811224
vt 0.454676 0.561164
vt 0.454676 0.811224
vt 0.273290 0.561164
vt 0.546579 0.522162
vt 0.727966 0.772513
vt 0.546579 0.772513
vt 0.727966 0.522162
vt 0.000000 0.817549
vt 0.181387 0.567489
vt 0.181387 0.817549
vt 0.000000 0.567489
vt 0.534873 0.561164
vt 0.545341 0.839423
vt 0.534873 0.839423
vt 0.545340 0.561164
vt 0.534872 0.561164
vt 0.524392 0.839423
vt 0.524392 0.561164
vt 0.273290 0.561164
vt 0.319241 0.514377
vt 0.546579 0.561164
vt 0.273290 0.282906
vt 0.319241 0.329692
vt 0.500628 0.329692
vt 0.500628 0.514377
vt 0.546579 0.282906
vt 0.546579 0.772513
vt 0.666558 0.957198
vt 0.546579 0.957198
vt 0.666558 0.772513
vt 0.933398 0.184685
vt 0.813419 0.000000
vt 0.933398 0.000000
vt 0.813419 0.184685
vt 0.989117 0.184804
vt 0.949212 0.442752
vt 0.949211 0.184804
vt 0.989117 0.442752
vt 0.920236 0.456496
vt 0.880331 0.728308
vt 0.880331 0.456496
vt 0.920236 0.728308
vt 0.000000 0.144615
vt 0.273290 0.289230
vt 0.000000 0.289230
vt 0.273290 0.144615
vt 0.000000 0.000000
vt 0.273289 0.000000
vt 0.259965 0.567489
vt 0.268840 0.845748
vt 0.259965 0.845748
vt 0.268840 0.567489
vt 0.259965 0.845748
vt 0.251090 0.567489
vt 0.259965 0.567489
vt 0.251090 0.845748
vt 0.848084 0.641181
vt 0.727966 0.825866
vt 0.727966 0.641181
vt 0.848084 0.825866
vt 0.880331 0.733524
vt 0.231887 0.856719
vt 0.191226 0.712104
vt 0.240622 0.853557
vt 0.181387 0.712104
vt 0.231887 0.567489
vt 0.240622 0.570651
vt 0.273290 0.000000
vt 0.319241 0.141453
vt 0.273290 0.141453
vt 0.319241 0.049110
vt 0.500628 0.049110
vt 0.546579 0.141453
vt 0.500628 0.141453
vt 0.546579 0.000000
vt 0.045951 0.336017
vt 0.227338 0.520702
vt 0.045951 0.520702
vt 0.227338 0.336017
vt 0.003225 0.564325
vt 0.010077 0.557439
vt 0.227338 0.564325
vt 0.003225 0.292514
vt 0.010077 0.299491
vt 0.227338 0.299490
vt 0.227338 0.292514
vt 0.227338 0.557438
vt 0.524392 0.561164
vt 0.513912 0.839423
vt 0.513912 0.561164
vt 0.524392 0.839423
vt 0.263212 0.557438
vt 0.263212 0.299490
vt 0.000000 0.000000
vt 0.000000 0.000000
vt 0.000000 0.000000
vt 0.000000 0.567489
vt 0.273290 0.567489
vt 0.000000 0.289230
vt 0.270065 0.292513
vt 0.270065 0.564325
vt 0.273289 0.289230
vt 0.000000 0.000000
vt 0.000000 0.000000
vt 0.000000 0.000000
vt 0.251090 0.845748
vt 0.240622 0.567489
vt 0.251090 0.567489
vt 0.240623 0.845748
vt 0.546579 0.271812
vt 0.553431 0.264925
vt 0.813419 0.271811
vt 0.546579 0.000000
vt 0.553431 0.006977
vt 0.806567 0.006977
vt 0.806567 0.264925
vt 0.813419 0.000000
vt 0.960095 0.728308
vt 0.920190 0.986256
vt 0.920190 0.728308
vt 0.960095 0.986256
vt 0.960141 0.456496
vt 1.000000 0.714235
vt 0.960141 0.714235
vt 1.000000 0.493023
vt 1.000000 0.456496
vt 0.920190 0.956496
vt 0.880331 0.728308
vt 0.920190 0.728308
vt 0.880331 1.000000
vt 0.920190 1.000000
vt 0.920236 0.728308
vt 0.960141 0.456496
vt 0.960141 0.728308
vt 0.920236 0.456496
vt 0.909353 0.184804
vt 0.949211 0.456496
vt 0.909353 0.456496
vt 0.949211 0.228308
vt 0.949211 0.184804
vt 0.999954 0.949520
vt 0.960095 0.728308
vt 0.999953 0.728308
vt 0.960095 0.986046
vt 0.999954 0.986046
vt 0.848084 0.456496
vt 0.727966 0.641181
vt 0.727966 0.456496
vt 0.848084 0.641181
vt 0.880331 0.548839
vt 0.505177 0.850394
vt 0.464516 0.705779
vt 0.513912 0.847232
vt 0.454676 0.705779
vt 0.505177 0.561164
vt 0.513912 0.564327
vt 0.273290 0.282906
vt 0.319241 0.233795
vt 0.546579 0.282906
vt 0.500628 0.233795
vn 0.0000 -1.0000 0.0000
vn 0.0000 0.0000 -1.0000
vn 1.0000 0.0000 0.0000
vn 0.0000 0.0000 1.0000
vn -1.0000 0.0000 0.0000
vn -0.3350 0.9422 0.0000
vn 0.3350 0.9422 0.0000
vn -0.9422 -0.3350 0.0000
vn 0.9422 -0.3350 0.0000
vn -0.3350 -0.9422 0.0000
vn 0.0000 1.0000 0.0000
vn 0.3350 -0.9422 0.0000
usemtl Material.001
s off
f 1/1/1 2/2/1 3/3/1
f 2/2/1 1/1/1 4/4/1
f 5/5/2 1/6/2 3/3/2
f 1/6/2 5/5/2 6/7/2
f 1/8/3 7/9/3 4/10/3
f 7/9/3 1/8/3 6/11/3
f 7/12/4 2/13/4 4/14/4
f 2/13/4 7/12/4 8/15/4
f 5/16/5 2/17/5 8/18/5
f 2/17/5 5/16/5 3/19/5
f 9/20/5 10/21/5 11/22/5
f 10/21/5 9/20/5 12/23/5
f 13/24/4 10/25/4 14/26/4
f 10/25/4 13/24/4 11/22/4
f 12/27/1 5/28/1 10/29/1
f 5/28/1 12/27/1 15/30/1
f 5/28/1 15/30/1 6/31/1
f 6/31/1 15/30/1 7/32/1
f 10/29/1 8/33/1 14/34/1
f 8/33/1 10/29/1 5/28/1
f 14/34/1 8/33/1 7/32/1
f 14/34/1 7/32/1 15/30/1
f 16/35/5 17/36/5 18/37/5
f 17/36/5 16/35/5 19/38/5
f 20/39/3 21/40/3 22/41/3
f 21/40/3 20/39/3 23/42/3
f 24/43/2 25/44/2 26/45/2
f 25/44/2 24/43/2 27/46/2
f 28/47/4 29/48/4 30/49/4
f 29/48/4 28/47/4 31/50/4
f 32/51/6 33/52/6 34/53/6
f 33/52/6 32/51/6 35/54/6
f 36/55/7 35/54/7 32/51/7
f 35/54/7 36/55/7 37/56/7
f 33/57/8 38/58/8 34/59/8
f 38/58/8 33/57/8 39/60/8
f 40/61/9 36/62/9 41/63/9
f 36/62/9 40/61/9 37/64/9
f 21/65/4 17/66/4 22/67/4
f 17/66/4 21/65/4 18/68/4
f 18/68/4 21/65/4 42/69/4
f 36/70/4 43/71/4 41/72/4
f 43/71/4 36/70/4 32/73/4
f 43/71/4 34/74/4 38/75/4
f 34/74/4 43/71/4 32/73/4
f 40/76/10 44/77/10 45/78/10
f 44/77/10 40/76/10 23/79/10
f 23/79/10 40/76/10 21/80/10
f 21/80/10 43/81/10 42/82/10
f 43/81/10 21/80/10 41/83/10
f 41/83/10 21/80/10 40/76/10
f 22/84/11 19/85/11 17/86/11
f 19/85/11 22/84/11 20/87/11
f 29/88/11 26/89/11 46/90/11
f 26/89/11 29/88/11 30/91/11
f 26/89/11 30/91/11 25/92/11
f 25/92/11 30/91/11 47/93/11
f 47/93/11 30/91/11 48/94/11
f 49/95/11 46/90/11 26/89/11
f 9/96/2 15/97/2 12/98/2
f 15/97/2 9/96/2 50/99/2
f 26/89/11 17/86/11 49/95/11
f 17/86/11 26/89/11 25/92/11
f 49/95/11 17/86/11 51/100/11
f 17/86/11 25/92/11 22/84/11
f 22/84/11 25/92/11 20/87/11
f 51/100/11 19/85/11 52/101/11
f 19/85/11 51/100/11 17/86/11
f 52/101/11 19/85/11 20/87/11
f 52/101/11 20/87/11 25/92/11
f 52/102/4 25/103/4 47/104/4
f 11/105/11 29/88/11 9/106/11
f 29/88/11 11/105/11 13/107/11
f 29/88/11 13/107/11 30/91/11
f 30/91/11 13/107/11 48/94/11
f 48/94/11 13/107/11 53/108/11
f 9/106/11 54/109/11 50/110/11
f 54/109/11 9/106/11 29/88/11
f 54/111/4 29/112/4 46/113/4
f 50/110/11 54/109/11 53/108/11
f 50/110/11 53/108/11 13/107/11
f 15/114/3 13/115/3 14/116/3
f 13/115/3 15/114/3 50/117/3
f 31/118/11 24/119/11 55/120/11
f 24/119/11 31/118/11 28/121/11
f 24/119/11 28/121/11 27/122/11
f 27/122/11 28/121/11 56/123/11
f 55/120/11 57/124/11 58/125/11
f 57/124/11 55/120/11 24/119/11
f 58/125/11 57/124/11 56/123/11
f 58/125/11 56/123/11 28/121/11
f 56/126/4 51/127/4 52/128/4
f 51/127/4 56/126/4 57/129/4
f 56/130/5 25/131/5 27/132/5
f 25/131/5 56/130/5 47/133/5
f 47/133/5 56/130/5 52/134/5
f 48/135/3 28/136/3 30/137/3
f 28/136/3 48/135/3 58/138/3
f 58/138/3 48/135/3 53/139/3
f 55/140/2 53/141/2 54/142/2
f 53/141/2 55/140/2 58/143/2
f 55/144/5 29/145/5 31/146/5
f 29/145/5 55/144/5 46/147/5
f 46/147/5 55/144/5 54/148/5
f 49/149/3 24/150/3 26/151/3
f 24/150/3 49/149/3 57/152/3
f 57/152/3 49/149/3 51/153/3
f 16/154/2 20/155/2 19/156/2
f 20/155/2 16/154/2 23/157/2
f 23/157/2 16/154/2 44/158/2
f 33/159/2 45/160/2 39/161/2
f 45/160/2 33/159/2 35/162/2
f 45/160/2 37/163/2 40/164/2
f 37/163/2 45/160/2 35/162/2
f 39/165/12 16/166/12 38/167/12
f 16/166/12 39/165/12 45/78/12
f 16/166/12 45/78/12 44/77/12
f 38/167/12 18/168/12 43/81/12
f 18/168/12 38/167/12 16/166/12
f 43/81/12 18/168/12 42/82/12
